<?xml version="1.0" standalone="no"?>
<!DOCTYPE svg PUBLIC "-//W3C//DTD SVG 20010904//EN"
 "http://www.w3.org/TR/2001/REC-SVG-20010904/DTD/svg10.dtd">
<svg version="1.0" xmlns="http://www.w3.org/2000/svg"
 width="512.000000pt" height="512.000000pt" viewBox="0 0 512.000000 512.000000"
 preserveAspectRatio="xMidYMid meet">
<metadata>
Created by potrace 1.16, written by Peter Selinger 2001-2019
</metadata>
<g transform="translate(0.000000,512.000000) scale(0.100000,-0.100000)"
fill="#FFFFFF" stroke="none">
<path d="M3097 5004 c-14 -14 -7 -35 11 -32 9 2 17 10 17 17 0 16 -18 25 -28
15z"/>
<path d="M2964 4880 c-19 -13 -38 -37 -48 -65 -10 -24 -25 -47 -35 -50 -9 -3
-34 -23 -55 -44 -35 -36 -39 -46 -46 -113 -4 -40 -25 -140 -45 -222 -46 -185
-47 -283 -2 -380 15 -32 27 -60 27 -62 0 -2 -57 -5 -127 -7 l-128 -3 132 -2
132 -2 11 -37 c6 -21 14 -103 17 -183 3 -93 12 -173 25 -224 10 -43 17 -80 15
-83 -3 -2 -34 15 -70 37 -36 23 -73 43 -81 44 -8 1 -31 23 -51 49 -39 51 -59
65 -27 20 10 -16 29 -46 42 -68 l23 -40 -24 23 c-14 12 -34 22 -45 22 -30 0
-61 26 -90 76 -18 31 -23 49 -16 56 7 7 -1 33 -26 85 -29 62 -36 88 -38 151
l-3 77 9 -65 c11 -88 43 -169 85 -216 l35 -39 -30 50 c-71 117 -100 261 -76
387 8 41 21 91 30 111 8 21 13 37 10 37 -3 0 -12 -16 -20 -35 -12 -31 -19 -35
-52 -37 l-37 -1 34 -4 c32 -4 33 -6 26 -36 -35 -166 -41 -243 -26 -337 22
-134 85 -237 189 -306 76 -51 114 -97 143 -172 18 -48 20 -71 16 -143 -6 -93
0 -109 41 -109 13 0 20 -4 17 -10 -9 -15 11 -12 22 3 23 29 21 47 -8 83 -16
20 -29 49 -29 63 0 37 -17 96 -52 174 -16 38 -27 71 -24 74 7 8 27 -7 21 -17
-3 -4 2 -13 10 -20 8 -7 15 -9 15 -4 0 5 8 -3 17 -16 10 -14 18 -29 18 -33 0
-4 24 -30 53 -57 72 -67 104 -140 104 -238 -1 -41 -2 -76 -5 -78 -10 -10 -124
33 -245 94 -122 60 -140 66 -195 66 -47 -1 -75 -7 -114 -27 -28 -15 -54 -31
-58 -37 -9 -15 0 -13 47 13 34 17 59 22 118 22 67 -1 83 -5 148 -38 39 -20 72
-40 72 -42 0 -3 -9 -1 -19 5 -32 16 -36 12 -8 -10 14 -11 60 -37 102 -57 l76
-36 -43 -29 c-65 -43 -160 -69 -243 -67 -38 1 -76 7 -82 12 -7 5 -20 7 -28 3
-11 -4 -14 -2 -9 6 5 7 0 9 -14 6 -14 -4 -20 -2 -15 5 4 6 0 8 -10 4 -9 -3
-19 -1 -23 5 -5 7 -2 8 7 4 8 -4 1 3 -16 16 -64 49 -95 93 -117 162 -17 58
-19 74 -9 107 12 41 39 63 65 53 9 -3 16 -1 16 5 0 14 -45 25 -61 15 -7 -4
-10 -3 -6 2 3 6 2 16 -3 24 -6 10 -15 7 -38 -17 -41 -41 -49 -108 -29 -246 25
-167 64 -263 143 -355 61 -72 192 -152 306 -188 32 -9 56 -19 54 -21 -4 -5
-201 24 -261 37 -22 5 -73 21 -114 35 -41 14 -76 23 -79 20 -9 -8 -87 38 -141
84 -30 25 -76 72 -102 103 -42 51 -49 56 -58 40 -6 -9 -11 -12 -11 -6 0 5 5
15 10 20 7 7 4 26 -11 60 -28 62 -36 191 -20 334 23 215 121 640 192 834 16
44 27 82 24 84 -8 8 -10 3 -43 -89 -41 -116 -105 -352 -141 -525 -87 -410 -81
-645 24 -858 76 -155 183 -258 389 -372 175 -97 198 -143 217 -437 13 -201 6
-762 -11 -885 -20 -151 -48 -198 -155 -263 -30 -18 -54 -38 -52 -44 6 -18 78
-25 212 -21 83 2 106 1 65 -4 -61 -6 -58 -7 40 -8 58 -1 132 5 165 11 l60 13
-71 42 c-81 47 -126 93 -145 149 -20 54 -20 1085 -1 1188 28 152 62 192 257
306 126 74 267 205 323 301 103 175 124 386 73 734 -32 212 -133 624 -154 624
-5 0 -6 -8 -2 -17 45 -118 129 -503 151 -699 16 -138 16 -143 -4 -187 -29 -65
-81 -91 -182 -90 -41 0 -93 7 -115 14 l-40 14 3 60 c5 111 -39 227 -127 333
-38 45 -47 62 -36 66 21 8 18 36 -3 36 -30 0 -44 110 -40 312 l3 173 -38 92
c-36 88 -37 94 -33 190 7 158 44 265 121 351 51 57 65 82 65 117 0 44 27 82
87 119 113 71 239 93 320 57 34 -16 44 -17 59 -7 25 19 10 33 -47 45 -68 15
-162 14 -234 -3 -51 -12 -63 -12 -87 0 -34 18 -37 18 -74 -6z m-124 -244 c-6
-20 -16 -36 -21 -36 -13 0 -11 34 3 65 17 39 33 15 18 -29z m-122 -1191 c23
-1 128 -74 167 -117 61 -68 117 -184 110 -229 -4 -28 -4 -30 5 -14 9 16 9 14
5 -14 -3 -18 -6 -48 -6 -65 -1 -17 -5 -2 -10 34 -5 36 -6 73 -3 84 4 12 2 16
-5 12 -6 -4 -11 0 -11 10 0 31 -44 107 -94 161 -52 57 -128 115 -146 111 -5
-2 -20 13 -31 32 -12 19 -14 26 -5 15 9 -11 20 -20 24 -20z m138 -157 l29 -33
-32 29 c-31 28 -38 36 -30 36 2 0 16 -15 33 -32z m500 -362 c-31 -53 -91 -86
-158 -86 -60 0 -203 25 -253 45 -43 16 -41 16 85 -11 88 -19 223 -18 260 1 31
16 73 68 63 79 -3 3 -1 6 5 6 7 0 12 8 13 18 0 10 3 12 6 4 2 -7 -7 -32 -21
-56z m-486 18 c131 -46 326 -71 400 -50 23 7 24 6 5 -6 -31 -20 -194 -14 -302
11 -90 20 -203 63 -203 77 0 3 8 3 18 -1 9 -4 46 -18 82 -31z m-535 -14 c10
-11 16 -20 13 -20 -3 0 -13 9 -23 20 -10 11 -16 20 -13 20 3 0 13 -9 23 -20z
m995 -4 c0 -2 -8 -10 -17 -17 -16 -13 -17 -12 -4 4 13 16 21 21 21 13z m31
-54 c-6 -11 -27 -30 -46 -42 -19 -12 -35 -27 -35 -32 0 -6 -3 -8 -7 -5 -5 6
87 104 95 100 2 -1 -1 -10 -7 -21z m-1020 1 c13 -16 12 -17 -3 -4 -10 7 -18
15 -18 17 0 8 8 3 21 -13z m60 -10 c13 -16 12 -17 -3 -4 -10 7 -18 15 -18 17
0 8 8 3 21 -13z m834 -182 c-21 -43 -29 -39 -8 4 9 19 18 33 21 31 2 -2 -4
-18 -13 -35z m-1242 14 c-3 -9 -8 -14 -10 -11 -3 3 -2 9 2 15 9 16 15 13 8 -4z
m17 -60 c0 -5 -5 -3 -10 5 -5 8 -10 20 -10 25 0 6 5 3 10 -5 5 -8 10 -19 10
-25z m1180 -24 c-66 -93 -230 -196 -357 -225 -135 -30 -324 -15 -425 33 -24
12 -34 18 -23 15 110 -37 168 -47 280 -47 136 -1 209 14 307 64 78 39 166 106
202 153 32 43 46 48 16 7z m-1055 -94 c49 -47 149 -113 234 -156 35 -18 61
-35 58 -38 -11 -10 -113 27 -172 62 -74 45 -124 92 -181 171 -51 71 -59 99
-12 39 18 -22 50 -57 73 -78z m891 94 c-29 -31 -129 -80 -202 -97 -122 -28
-283 -2 -354 57 l-25 21 25 -14 c90 -53 210 -75 315 -58 69 11 215 70 236 97
6 7 14 13 17 13 3 0 -3 -9 -12 -19z m-1002 -7 c3 -8 2 -12 -4 -9 -6 3 -10 10
-10 16 0 14 7 11 14 -7z m26 -44 c6 -11 8 -20 6 -20 -3 0 -10 9 -16 20 -6 11
-8 20 -6 20 3 0 10 -9 16 -20z m243 -249 c32 -19 97 -49 145 -68 62 -24 76
-32 47 -28 -118 19 -306 144 -387 258 -11 15 16 -7 59 -50 43 -43 105 -93 136
-112z m212 -131 c-3 -5 -12 -7 -20 -3 -21 7 -19 13 6 13 11 0 18 -4 14 -10z
m270 -11 c-41 -9 -204 -9 -235 0 -14 4 40 7 120 7 80 0 132 -3 115 -7z m-42
-32 c-35 -6 -77 -6 -125 0 l-73 10 125 0 c112 0 119 -1 73 -10z m-49 -149 c4
-47 3 -74 -4 -76 -13 -5 -13 -413 0 -820 10 -291 7 -350 -12 -306 -6 13 -7 10
-3 -13 2 -19 0 -33 -6 -33 -6 0 -10 24 -10 57 2 164 -16 1088 -19 1028 -3 -66
-4 -67 -8 -20 -2 28 -1 96 3 153 7 97 8 102 30 102 20 0 23 -6 29 -72z m-67
30 c-3 -8 -6 -5 -6 6 -1 11 2 17 5 13 3 -3 4 -12 1 -19z m113 -1348 c0 -6 -33
-9 -82 -8 -80 1 -81 2 -28 8 87 11 110 11 110 0z m48 -45 c54 -16 62 -35 15
-35 -14 0 -32 8 -40 18 -10 12 -16 14 -19 5 -7 -16 -174 -18 -174 -3 0 6 6 10
13 11 6 1 1 5 -13 9 -50 16 164 11 218 -5z m-262 -10 c-16 -17 -36 -20 -36 -6
0 8 17 16 43 20 5 0 2 -6 -7 -14z m147 -32 c-13 -2 -33 -2 -45 0 -13 2 -3 4
22 4 25 0 35 -2 23 -4z m70 -10 c-7 -2 -21 -2 -30 0 -10 3 -4 5 12 5 17 0 24
-2 18 -5z"/>
<path d="M3170 4675 c-21 -25 3 -67 37 -63 34 4 52 31 37 56 -15 23 -57 27
-74 7z m55 -25 c3 -5 -1 -10 -9 -10 -8 0 -18 5 -21 10 -3 6 1 10 9 10 8 0 18
-4 21 -10z"/>
<path d="M2580 4371 c-12 -24 -4 -48 19 -54 27 -7 51 11 51 37 0 38 -52 50
-70 17z m40 -11 c0 -5 -4 -10 -10 -10 -5 0 -10 5 -10 10 0 6 5 10 10 10 6 0
10 -4 10 -10z"/>
<path d="M2214 4269 c-10 -17 13 -36 27 -22 12 12 4 33 -11 33 -5 0 -12 -5
-16 -11z"/>
<path d="M2845 4124 c128 -9 244 -27 281 -44 39 -16 42 -22 59 -84 17 -64 43
-108 29 -49 -19 79 -45 131 -72 142 -53 21 -119 31 -232 35 -63 2 -92 2 -65 0z"/>
<path d="M2323 4113 c9 -2 25 -2 35 0 9 3 1 5 -18 5 -19 0 -27 -2 -17 -5z"/>
<path d="M2216 4095 c-21 -7 -44 -19 -50 -25 -8 -10 -6 -10 11 -1 12 6 46 18
75 25 30 8 42 15 28 15 -14 0 -42 -6 -64 -14z"/>
<path d="M2705 3640 c-9 -15 3 -30 25 -30 18 0 34 23 23 34 -10 10 -41 7 -48
-4z"/>
<path d="M2515 3410 c-4 -7 -3 -16 3 -22 14 -14 45 -2 40 15 -6 16 -34 21 -43
7z"/>
<path d="M2351 3345 c-40 -46 -40 -56 0 -16 17 17 35 31 40 31 5 0 9 5 9 10 0
19 -18 10 -49 -25z"/>
<path d="M2252 3283 c4 -21 33 -25 33 -3 0 8 -8 16 -18 18 -14 3 -18 -1 -15
-15z"/>
<path d="M2015 2917 c-32 -18 -41 -29 -43 -54 -6 -60 71 -168 170 -240 l43
-31 -37 74 c-21 42 -47 117 -59 174 -13 55 -25 100 -29 100 -3 0 -23 -10 -45
-23z"/>
<path d="M2494 2492 c3 -5 -4 -12 -16 -16 -15 -3 -19 -9 -13 -15 11 -10 105
-21 105 -12 0 3 -19 17 -41 29 -23 13 -39 20 -35 14z"/>
<path d="M3142 553 c-64 -27 -228 -35 -557 -28 -295 6 -403 13 -462 31 -17 5
-23 2 -23 -10 0 -9 8 -16 18 -16 16 -1 16 -1 0 -11 -66 -38 31 -50 447 -56
480 -7 642 8 604 53 -7 9 -8 14 -1 14 12 0 24 28 14 33 -4 2 -22 -2 -40 -10z
m-649 -40 c-13 -2 -33 -2 -45 0 -13 2 -3 4 22 4 25 0 35 -2 23 -4z m217 -15
c0 -9 -15 -12 -52 -10 -77 5 -85 22 -10 22 43 0 62 -4 62 -12z m-262 -15 c-10
-2 -26 -2 -35 0 -10 3 -2 5 17 5 19 0 27 -2 18 -5z m425 0 c-7 -2 -19 -2 -25
0 -7 3 -2 5 12 5 14 0 19 -2 13 -5z"/>
</g>
</svg>